<?xml version="1.0" encoding="UTF-8"?>
<svg width="46px" height="10px" viewBox="0 0 46 10" version="1.1" xmlns="http://www.w3.org/2000/svg" xmlns:xlink="http://www.w3.org/1999/xlink">
    <!-- Generator: Sketch 53.2 (72643) - https://sketchapp.com -->
    <title>Group 3 Copy</title>
    <desc>Created with Sketch.</desc>
    <g id="Page-1" stroke="none" stroke-width="1" fill="none" fill-rule="evenodd">
        <g id="Group-3-Copy" fill="#9DA5B4" fill-rule="nonzero">
            <path d="M21.0509235,8.37730871 L19.5007916,2.21635884 L19.5007916,8.89182058 C19.5007916,9.26121557 19.4183386,9.53825765 19.2534301,9.72295515 C19.0885216,9.90765264 18.8697463,10 18.5970976,10 C18.3332441,10 18.1177669,9.90875201 17.9506596,9.7262533 C17.7835524,9.54375458 17.7,9.26561313 17.7,8.89182058 L17.7,1.24010554 C17.7,0.817939842 17.8099373,0.533202144 18.0298153,0.385883905 C18.2496933,0.238565666 18.5465241,0.164907652 18.9203166,0.164907652 L19.5271768,0.164907652 C19.8921742,0.164907652 20.1571232,0.197888852 20.3220317,0.263852243 C20.4869401,0.329815633 20.6089706,0.448547955 20.6881266,0.62005277 C20.7672827,0.791557586 20.8574313,1.07079842 20.9585752,1.45778364 L22.3635884,6.75461741 L23.7686016,1.45778364 C23.8697454,1.07079842 23.9598941,0.791557586 24.0390501,0.62005277 C24.1182062,0.448547955 24.2402366,0.329815633 24.4051451,0.263852243 C24.5700536,0.197888852 24.8350026,0.164907652 25.2,0.164907652 L25.8068602,0.164907652 C26.1806527,0.164907652 26.4774835,0.238565666 26.6973615,0.385883905 C26.9172394,0.533202144 27.0271768,0.817939842 27.0271768,1.24010554 L27.0271768,8.89182058 C27.0271768,9.26121557 26.9447238,9.53825765 26.7798153,9.72295515 C26.6149068,9.90765264 26.3939328,10 26.1168865,10 C25.8574305,10 25.6441521,9.90765264 25.4770449,9.72295515 C25.3099376,9.53825765 25.2263852,9.26121557 25.2263852,8.89182058 L25.2263852,2.21635884 L23.6762533,8.37730871 C23.5751094,8.77748661 23.4926564,9.07101929 23.4288918,9.25791557 C23.3651272,9.44481184 23.2474943,9.61521471 23.0759894,9.76912929 C22.9044846,9.92304387 22.66702,10 22.3635884,10 C22.1349153,10 21.9414256,9.9505282 21.7831135,9.85158311 C21.6248013,9.75263803 21.5016715,9.62621009 21.4137203,9.47229551 C21.3257691,9.31838094 21.2565086,9.14797807 21.2059367,8.96108179 C21.1553647,8.77418552 21.1036942,8.57959644 21.0509235,8.37730871 Z M29.1182058,8.8060686 L29.1182058,1.18733509 C29.1182058,0.791554749 29.2083544,0.494723945 29.3886544,0.296833773 C29.5689543,0.0989436016 29.8020214,0 30.0878628,0 C30.3824993,0 30.6210633,0.0978442282 30.803562,0.29353562 C30.9860607,0.489227012 31.0773087,0.78715719 31.0773087,1.18733509 L31.0773087,8.8060686 C31.0773087,9.2062465 30.9860607,9.50527606 30.803562,9.70316623 C30.6210633,9.9010564 30.3824993,10 30.0878628,10 C29.806419,10 29.5744512,9.89995703 29.3919525,9.69986807 C29.2094538,9.49977912 29.1182058,9.20184894 29.1182058,8.8060686 Z M34.4810026,0.164907652 L37.0337731,0.164907652 C37.6978046,0.164907652 38.2672799,0.226472559 38.7422164,0.349604222 C39.2171528,0.472735884 39.6481071,0.703604288 40.0350923,1.04221636 C41.0421334,1.90413799 41.5456464,3.21459103 41.5456464,4.97361478 C41.5456464,5.55409261 41.4950753,6.08399057 41.3939314,6.56332454 C41.2927875,7.04265851 41.1366765,7.47471224 40.9255937,7.85949868 C40.7145108,8.24428513 40.444065,8.58838898 40.114248,8.89182058 C39.854792,9.12489123 39.5711537,9.3117847 39.2633245,9.4525066 C38.9554954,9.5932285 38.624584,9.6921721 38.2705805,9.74934037 C37.9165769,9.80650864 37.5175044,9.83509235 37.0733509,9.83509235 L34.5205805,9.83509235 C34.1643782,9.83509235 33.8961311,9.78122305 33.7158311,9.67348285 C33.5355312,9.56574265 33.4178983,9.41402912 33.3629288,9.21833773 C33.3079593,9.02264634 33.2804749,8.76869109 33.2804749,8.45646438 L33.2804749,1.36543536 C33.2804749,0.943269657 33.375021,0.637643865 33.5641161,0.448548813 C33.7532111,0.25945376 34.0588369,0.164907652 34.4810026,0.164907652 Z M35.2395778,1.71503958 L35.2395778,8.27836412 L36.7237467,8.27836412 C37.0491661,8.27836412 37.3042207,8.26956913 37.4889182,8.25197889 C37.6736157,8.23438865 37.8649067,8.19041372 38.0627968,8.12005277 C38.260687,8.04969182 38.4321892,7.95074822 38.5773087,7.823219 C39.2325451,7.26912652 39.5601583,6.31487045 39.5601583,4.96042216 C39.5601583,4.00615178 39.4161404,3.2915591 39.1281003,2.81662269 C38.8400601,2.34168628 38.4849625,2.03935861 38.0627968,1.90963061 C37.6406311,1.77990261 37.1305219,1.71503958 36.5324538,1.71503958 L35.2395778,1.71503958 Z M43.346438,8.8060686 L43.346438,1.18733509 C43.346438,0.791554749 43.4365866,0.494723945 43.6168865,0.296833773 C43.7971865,0.0989436016 44.0302536,0 44.316095,0 C44.6107315,0 44.8492955,0.0978442282 45.0317942,0.29353562 C45.2142929,0.489227012 45.3055409,0.78715719 45.3055409,1.18733509 L45.3055409,8.8060686 C45.3055409,9.2062465 45.2142929,9.50527606 45.0317942,9.70316623 C44.8492955,9.9010564 44.6107315,10 44.316095,10 C44.0346512,10 43.8026834,9.89995703 43.6201847,9.69986807 C43.437686,9.49977912 43.346438,9.20184894 43.346438,8.8060686 Z" id="MIDI"></path>
            <path d="M6.39167862,0.114777618 C6.39167862,0.516501291 6.39048303,0.986367468 6.38809182,1.52439024 C6.38570061,2.06241302 6.38450502,2.48684684 6.38450502,2.79770445 C6.38450502,3.08464993 6.38570061,3.42658816 6.38809182,3.82352941 C6.39048303,4.22047066 6.39167862,4.71783537 6.39167862,5.31563845 C6.39167862,6.13343307 6.25418598,6.82926542 5.97919656,7.40315638 C5.70420714,7.97704735 5.31564096,8.44332676 4.81348637,8.80200861 C4.3161142,9.15590803 3.7266892,9.42730656 3.04519369,9.61621234 C2.36369817,9.80511811 1.6188467,9.93304605 0.81061693,10 L-1.42108547e-14,6.93687231 C0.234338809,6.91296019 0.494977044,6.86872342 0.781922525,6.80416069 C1.06886801,6.73959796 1.32950624,6.63797296 1.56384505,6.49928264 C1.83644326,6.32711535 2.05404032,6.10114918 2.21664275,5.82137733 C2.37924519,5.54160549 2.46054519,5.16021284 2.46054519,4.67718795 C2.46054519,4.46197884 2.46174078,4.19058031 2.46413199,3.86298422 C2.46652321,3.53538813 2.46771879,3.13486607 2.46771879,2.66140603 C2.46771879,2.2309878 2.46532762,1.80177163 2.46054519,1.37374462 C2.45576277,0.945717611 2.45337159,0.526066141 2.45337159,0.114777618 L6.39167862,0.114777618 Z M16.1047346,6.77905308 C16.1047346,7.35294405 15.9385478,7.83715728 15.6061693,8.23170732 C15.2737908,8.62625735 14.8206628,8.95743529 14.2467719,9.22525108 C13.7541821,9.45480746 13.1061733,9.62099423 12.302726,9.72381636 C11.4992786,9.82663849 10.7508404,9.87804878 10.0573888,9.87804878 C9.42132633,9.87804878 8.9060278,9.87087525 8.51147776,9.85652798 C8.11692773,9.8421807 7.82161743,9.83022482 7.62553802,9.82065997 L7.18794835,6.71449067 C7.24055502,6.7192731 7.50478002,6.7288378 7.98063128,6.74318508 C8.45648253,6.75753235 8.76853106,6.76470588 8.91678623,6.76470588 L9.57675753,6.76470588 C9.82544362,6.76470588 10.0669524,6.75753235 10.3012912,6.74318508 C10.6217137,6.71927296 10.8249637,6.67264501 10.9110473,6.60329986 C10.997131,6.5339547 11.0401722,6.45624146 11.0401722,6.37015782 C11.0401722,6.26494448 10.9851751,6.17886212 10.8751793,6.11190818 C10.7651836,6.04495423 10.5595424,5.95408953 10.2582496,5.83931133 C10.0956472,5.77713981 9.85294279,5.67790599 9.53012912,5.54160689 C9.20731546,5.40530778 8.95265516,5.27977102 8.7661406,5.16499283 C8.32615753,4.89717704 8.00813106,4.58512852 7.81205165,4.22883788 C7.61597224,3.87254724 7.517934,3.47919871 7.517934,3.04878049 C7.517934,2.77618228 7.56814871,2.51195728 7.66857963,2.25609756 C7.76901055,2.00023784 7.90769878,1.78144519 8.08464849,1.59971306 C8.55810854,1.10234089 9.25633207,0.711383537 10.17934,0.426829268 C11.102348,0.142275 12.2333745,0 13.5724534,0 C14.1606916,0 14.6054504,0.00478235294 14.9067432,0.0143472023 C15.2080359,0.0239120516 15.4208506,0.0334767575 15.5451937,0.0430416069 L15.9756098,3.1492109 C15.7556182,3.13964605 15.5463903,3.13008135 15.3479197,3.1205165 C15.149449,3.11095165 14.9019623,3.1061693 14.6054519,3.1061693 C14.3376362,3.1061693 14.1044964,3.10975606 13.9060258,3.1169297 C13.7075552,3.12410334 13.4887626,3.13486363 13.2496413,3.1492109 C13.0200849,3.16355818 12.8503114,3.19583906 12.7403156,3.24605452 C12.6303199,3.29626998 12.5753228,3.36920086 12.5753228,3.46484935 C12.5753228,3.57484512 12.638689,3.66570983 12.7654232,3.7374462 C12.8921575,3.80918257 13.0870384,3.8976561 13.3500717,4.00286944 C13.6035402,4.10330036 13.8582005,4.20492536 14.1140603,4.30774749 C14.36992,4.41056962 14.6197979,4.53371521 14.8637016,4.67718795 C15.2845549,4.93065646 15.5966035,5.22955352 15.7998565,5.57388809 C16.0031096,5.91822267 16.1047346,6.31994032 16.1047346,6.77905308 Z" id="JS"></path>
        </g>
    </g>
</svg>